<svg width="40" height="40" viewBox="0 0 40 40" fill="none" xmlns="http://www.w3.org/2000/svg">
<g id="arrow_back_24px">
<path id="icon/navigation/arrow_back_24px" d="M31.3187 18.3417H12.702L20.8354 10.2083C21.4854 9.55833 21.4854 8.49166 20.8354 7.84166C20.524 7.52958 20.1012 7.35419 19.6604 7.35419C19.2195 7.35419 18.7967 7.52958 18.4854 7.84166L7.50203 18.825C6.85203 19.475 6.85203 20.525 7.50203 21.175L18.4854 32.1583C19.1354 32.8083 20.1854 32.8083 20.8354 32.1583C21.4854 31.5083 21.4854 30.4583 20.8354 29.8083L12.702 21.675H31.3187C32.2354 21.675 32.9854 20.925 32.9854 20.0083C32.9854 19.0917 32.2354 18.3417 31.3187 18.3417Z" fill="black" fill-opacity="0.54"/>
</g>
</svg>
