<svg width="95" height="26" viewBox="0 0 95 26" fill="none" xmlns="http://www.w3.org/2000/svg">
<path d="M6.65901 24.9655C6.42901 25.0345 6.06101 25.1035 5.55501 25.1725C5.07201 25.2415 4.56601 25.276 4.03701 25.276C3.53101 25.276 3.07101 25.2415 2.65701 25.1725C2.26601 25.1035 1.93251 24.9655 1.65651 24.7585C1.38051 24.5515 1.16201 24.2755 1.00101 23.9305C0.863006 23.5625 0.794006 23.091 0.794006 22.516L0.794006 12.166C0.794006 11.637 0.886006 11.1885 1.07001 10.8205C1.27701 10.4295 1.56451 10.0845 1.93251 9.78552C2.30051 9.48652 2.74901 9.22202 3.27801 8.99202C3.83001 8.73902 4.41651 8.52052 5.03751 8.33652C5.65851 8.15252 6.30251 8.01452 6.96951 7.92252C7.63651 7.80752 8.30351 7.75002 8.97051 7.75002C10.0745 7.75002 10.9485 7.96852 11.5925 8.40552C12.2365 8.81952 12.5585 9.50952 12.5585 10.4755C12.5585 10.7975 12.5125 11.1195 12.4205 11.4415C12.3285 11.7405 12.2135 12.0165 12.0755 12.2695C11.5925 12.2695 11.098 12.2925 10.592 12.3385C10.086 12.3845 9.59151 12.4535 9.10851 12.5455C8.62551 12.6375 8.16551 12.741 7.72851 12.856C7.31451 12.948 6.95801 13.063 6.65901 13.201L6.65901 24.9655Z" fill="#4F4F4F"/>
<path d="M28.4547 24.5515C28.1327 24.8045 27.6612 25.0115 27.0402 25.1725C26.4192 25.3335 25.7177 25.414 24.9357 25.414C24.0387 25.414 23.2567 25.299 22.5897 25.069C21.9457 24.839 21.4972 24.471 21.2442 23.965C21.0372 23.574 20.7842 23.0335 20.4852 22.3435C20.2092 21.6305 19.9101 20.8485 19.5882 19.9975C19.2662 19.1235 18.9327 18.192 18.5877 17.203C18.2427 16.214 17.9092 15.2365 17.5872 14.2705C17.2882 13.3045 17.0122 12.373 16.7592 11.476C16.5062 10.579 16.2992 9.78552 16.1382 9.09552C16.4602 8.77352 16.8856 8.49752 17.4146 8.26752C17.9666 8.01452 18.5647 7.88802 19.2087 7.88802C20.0137 7.88802 20.6692 8.06052 21.1752 8.40552C21.7042 8.72752 22.0952 9.34852 22.3482 10.2685L23.6937 15.547C23.9467 16.582 24.1882 17.525 24.4182 18.376C24.6482 19.204 24.8207 19.848 24.9357 20.308H25.1082C25.5452 18.606 26.0052 16.72 26.4882 14.65C26.9712 12.58 27.4082 10.5445 27.7992 8.54352C28.1902 8.33652 28.6272 8.17552 29.1102 8.06052C29.6162 7.94552 30.0992 7.88802 30.5592 7.88802C31.3642 7.88802 32.0427 8.06052 32.5947 8.40552C33.1467 8.75052 33.4227 9.34852 33.4227 10.1995C33.4227 10.5675 33.3307 11.108 33.1467 11.821C32.9857 12.511 32.7672 13.3045 32.4912 14.2015C32.2382 15.0755 31.9277 16.007 31.5597 16.996C31.2147 17.985 30.8582 18.951 30.4902 19.894C30.1222 20.837 29.7542 21.7225 29.3862 22.5505C29.0412 23.3555 28.7307 24.0225 28.4547 24.5515Z" fill="#4F4F4F"/>
<path d="M37.629 3.57552C37.629 2.70152 37.9165 1.96552 38.4915 1.36752C39.0895 0.76952 39.8715 0.47052 40.8375 0.47052C41.8035 0.47052 42.574 0.76952 43.149 1.36752C43.747 1.96552 44.046 2.70152 44.046 3.57552C44.046 4.44952 43.747 5.18552 43.149 5.78352C42.574 6.38152 41.8035 6.68052 40.8375 6.68052C39.8715 6.68052 39.0895 6.38152 38.4915 5.78352C37.9165 5.18552 37.629 4.44952 37.629 3.57552ZM43.77 24.9655C43.517 25.0115 43.1375 25.069 42.6315 25.138C42.1485 25.23 41.654 25.276 41.148 25.276C40.642 25.276 40.182 25.2415 39.768 25.1725C39.377 25.1035 39.0435 24.9655 38.7675 24.7585C38.4915 24.5515 38.273 24.2755 38.112 23.9305C37.974 23.5625 37.905 23.091 37.905 22.516L37.905 8.47452C38.158 8.42852 38.526 8.37102 39.009 8.30202C39.515 8.21002 40.021 8.16402 40.527 8.16402C41.033 8.16402 41.4815 8.19852 41.8725 8.26752C42.2865 8.33652 42.6315 8.47452 42.9075 8.68152C43.1835 8.88852 43.3905 9.17602 43.5285 9.54402C43.6895 9.88902 43.77 10.349 43.77 10.924L43.77 24.9655Z" fill="#4F4F4F"/>
<path d="M58.0953 25.552C56.7383 25.552 55.4733 25.368 54.3003 25C53.1503 24.609 52.1383 24.034 51.2643 23.275C50.4133 22.516 49.7348 21.5615 49.2288 20.4115C48.7458 19.2615 48.5043 17.916 48.5043 16.375C48.5043 14.857 48.7458 13.5575 49.2288 12.4765C49.7348 11.3725 50.3903 10.4755 51.1953 9.78552C52.0003 9.07252 52.9203 8.55502 53.9553 8.23302C54.9903 7.88802 56.0483 7.71552 57.1293 7.71552C58.3483 7.71552 59.4523 7.89952 60.4413 8.26752C61.4533 8.63552 62.3158 9.14152 63.0288 9.78552C63.7648 10.4295 64.3283 11.2 64.7193 12.097C65.1333 12.994 65.3403 13.9715 65.3403 15.0295C65.3403 15.8115 65.1218 16.4095 64.6848 16.8235C64.2478 17.2375 63.6383 17.502 62.8563 17.617L54.3348 18.8935C54.5878 19.6525 55.1053 20.2275 55.8873 20.6185C56.6693 20.9865 57.5663 21.1705 58.5783 21.1705C59.5213 21.1705 60.4068 21.0555 61.2348 20.8255C62.0858 20.5725 62.7758 20.285 63.3048 19.963C63.6728 20.193 63.9833 20.515 64.2363 20.929C64.4893 21.343 64.6158 21.78 64.6158 22.24C64.6158 23.275 64.1328 24.0455 63.1668 24.5515C62.4308 24.9425 61.6028 25.207 60.6828 25.345C59.7628 25.483 58.9003 25.552 58.0953 25.552ZM57.1293 11.9935C56.5773 11.9935 56.0943 12.0855 55.6803 12.2695C55.2893 12.4535 54.9673 12.695 54.7143 12.994C54.4613 13.27 54.2658 13.592 54.1278 13.96C54.0128 14.305 53.9438 14.6615 53.9208 15.0295L59.8203 14.0635C59.7513 13.6035 59.4983 13.1435 59.0613 12.6835C58.6243 12.2235 57.9803 11.9935 57.1293 11.9935Z" fill="#4F4F4F"/>
<path d="M79.4448 24.4825C79.1228 24.7585 78.6858 24.977 78.1338 25.138C77.5818 25.322 76.9263 25.414 76.1673 25.414C75.2243 25.414 74.4078 25.276 73.7178 25C73.0278 24.747 72.5678 24.379 72.3378 23.896C72.0848 23.344 71.7858 22.47 71.4408 21.274C71.1188 20.078 70.7968 18.767 70.4748 17.341C70.1528 15.915 69.8423 14.466 69.5433 12.994C69.2673 11.522 69.0488 10.2225 68.8878 9.09552C69.2098 8.77352 69.6353 8.49752 70.1643 8.26752C70.7163 8.01452 71.3143 7.88802 71.9583 7.88802C72.7633 7.88802 73.4188 8.07202 73.9248 8.44002C74.4538 8.78502 74.7758 9.39452 74.8908 10.2685C75.1208 12.0165 75.3163 13.4655 75.4773 14.6155C75.6383 15.7425 75.7648 16.674 75.8568 17.41C75.9718 18.123 76.0523 18.675 76.0983 19.066C76.1673 19.434 76.2248 19.733 76.2708 19.963L76.4088 19.963C76.4778 19.595 76.5928 19.066 76.7538 18.376C76.9378 17.663 77.1448 16.858 77.3748 15.961C77.6048 15.064 77.8463 14.098 78.0993 13.063C78.3523 12.005 78.6053 10.9585 78.8583 9.92352C79.3183 9.67052 79.7668 9.47502 80.2038 9.33702C80.6638 9.19902 81.2273 9.13002 81.8943 9.13002C82.6993 9.13002 83.3893 9.25652 83.9643 9.50952C84.5393 9.76252 84.9073 10.1535 85.0683 10.6825C85.3443 11.6945 85.6088 12.6835 85.8618 13.6495C86.1148 14.5925 86.3448 15.478 86.5518 16.306C86.7588 17.111 86.9428 17.8355 87.1038 18.4795C87.2648 19.1005 87.3798 19.595 87.4488 19.963H87.6213C87.8743 18.192 88.1158 16.352 88.3458 14.443C88.5988 12.534 88.8289 10.5905 89.0359 8.61252C89.4498 8.35952 89.8868 8.17552 90.3468 8.06052C90.8068 7.94552 91.2668 7.88802 91.7268 7.88802C92.5318 7.88802 93.1988 8.06052 93.7278 8.40552C94.2568 8.75052 94.5213 9.34852 94.5213 10.1995C94.5213 10.5675 94.4638 11.1195 94.3488 11.8555C94.2338 12.5915 94.0843 13.4195 93.9003 14.3395C93.7163 15.2595 93.4978 16.2255 93.2448 17.2375C93.0148 18.2495 92.7733 19.227 92.5203 20.17C92.2903 21.113 92.0603 21.964 91.8303 22.723C91.6233 23.482 91.4393 24.0685 91.2783 24.4825C90.9563 24.7585 90.4618 24.977 89.7948 25.138C89.1278 25.322 88.4148 25.414 87.6558 25.414C85.7238 25.414 84.5853 24.931 84.2403 23.965C84.1023 23.551 83.9298 23.0335 83.7228 22.4125C83.5158 21.7685 83.2973 21.067 83.0673 20.308C82.8373 19.549 82.6188 18.767 82.4118 17.962C82.2048 17.134 82.0323 16.3405 81.8943 15.5815C81.7333 16.3865 81.5378 17.226 81.3078 18.1C81.0778 18.951 80.8363 19.7905 80.5833 20.6185C80.3533 21.4235 80.1348 22.171 79.9278 22.861C79.7208 23.528 79.5598 24.0685 79.4448 24.4825Z" fill="#4F4F4F"/>
</svg>
