<svg width="120" height="24" viewBox="0 0 120 24" fill="none" xmlns="http://www.w3.org/2000/svg">
<path d="M12 17.5196L16.15 20.0296C16.91 20.4896 17.84 19.8096 17.64 18.9496L16.54 14.2296L20.21 11.0496C20.88 10.4696 20.52 9.36958 19.64 9.29958L14.81 8.88958L12.92 4.42958C12.58 3.61958 11.42 3.61958 11.08 4.42958L9.19 8.87958L4.36 9.28958C3.48 9.35958 3.12 10.4596 3.79 11.0396L7.46 14.2196L6.36 18.9396C6.16 19.7996 7.09 20.4796 7.85 20.0196L12 17.5196V17.5196Z" fill="#D79F10"/>
<path fill-rule="evenodd" clip-rule="evenodd" d="M62.8085 8.87458L67.6485 9.29458C68.5285 9.36458 68.8785 10.4646 68.2085 11.0446L64.5385 14.2246L65.6385 18.9546C65.8385 19.8146 64.9085 20.4946 64.1485 20.0346L59.9985 17.5246L55.8485 20.0246C55.0885 20.4846 54.1585 19.8046 54.3585 18.9446L55.4585 14.2246L51.7885 11.0446C51.1185 10.4646 51.4785 9.36458 52.3585 9.29458L57.1885 8.88458L59.0785 4.42458C59.4185 3.61458 60.5785 3.61458 60.9185 4.42458L62.8085 8.87458ZM56.2385 17.9246L59.9985 15.6546L63.7685 17.9346L62.7685 13.6546L66.0885 10.7746L61.7085 10.3946L59.9985 6.35458L58.2985 10.3846L53.9185 10.7646L57.2385 13.6446L56.2385 17.9246Z" fill="#D79F10"/>
<path fill-rule="evenodd" clip-rule="evenodd" d="M86.8085 8.87458L91.6485 9.29458C92.5285 9.36458 92.8785 10.4646 92.2085 11.0446L88.5385 14.2246L89.6385 18.9546C89.8385 19.8146 88.9085 20.4946 88.1485 20.0346L83.9985 17.5246L79.8485 20.0246C79.0885 20.4846 78.1585 19.8046 78.3585 18.9446L79.4585 14.2246L75.7885 11.0446C75.1185 10.4646 75.4785 9.36458 76.3585 9.29458L81.1885 8.88458L83.0785 4.42458C83.4185 3.61458 84.5785 3.61458 84.9185 4.42458L86.8085 8.87458ZM80.2385 17.9246L83.9985 15.6546L87.7685 17.9346L86.7685 13.6546L90.0885 10.7746L85.7085 10.3946L83.9985 6.35458L82.2985 10.3846L77.9185 10.7646L81.2385 13.6446L80.2385 17.9246Z" fill="#D79F10"/>
<path fill-rule="evenodd" clip-rule="evenodd" d="M110.809 8.87458L115.649 9.29458C116.529 9.36458 116.879 10.4646 116.209 11.0446L112.539 14.2246L113.639 18.9546C113.839 19.8146 112.909 20.4946 112.149 20.0346L107.999 17.5246L103.849 20.0246C103.089 20.4846 102.159 19.8046 102.359 18.9446L103.459 14.2246L99.7885 11.0446C99.1185 10.4646 99.4785 9.36458 100.359 9.29458L105.189 8.88458L107.079 4.42458C107.419 3.61458 108.579 3.61458 108.919 4.42458L110.809 8.87458ZM104.239 17.9246L107.999 15.6546L111.769 17.9346L110.769 13.6546L114.089 10.7746L109.709 10.3946L107.999 6.35458L106.299 10.3846L101.919 10.7646L105.239 13.6446L104.239 17.9246Z" fill="#D79F10"/>
<path fill-rule="evenodd" clip-rule="evenodd" d="M38.8085 8.87458L43.6485 9.29458C44.5285 9.36458 44.8785 10.4646 44.2085 11.0446L40.5385 14.2246L41.6385 18.9546C41.8385 19.8146 40.9085 20.4946 40.1485 20.0346L35.9985 17.5246L31.8485 20.0246C31.0885 20.4846 30.1585 19.8046 30.3585 18.9446L31.4585 14.2246L27.7885 11.0446C27.1185 10.4646 27.4785 9.36458 28.3585 9.29458L33.1885 8.88458L35.0785 4.42458C35.4185 3.61458 36.5785 3.61458 36.9185 4.42458L38.8085 8.87458ZM35.9985 6.35458V15.6546L39.7685 17.9346L38.7685 13.6546L42.0885 10.7746L37.7085 10.3946L35.9985 6.35458Z" fill="#D79F10"/>
</svg>
