<svg width="40" height="40" viewBox="0 0 40 40" fill="none" xmlns="http://www.w3.org/2000/svg">
<rect width="40" height="40" rx="20" fill="#F2D58A"/>
<path d="M11.0975 19.9929C11.0972 20.2574 11.2021 20.5112 11.3892 20.6982C11.5762 20.8853 11.83 20.9902 12.0945 20.9899L19.0029 20.997L19.0029 27.9125C19.0026 28.177 19.1076 28.4308 19.2946 28.6178C19.4817 28.8049 19.7354 28.9098 20 28.9095C20.5515 28.9095 20.997 28.4641 20.997 27.9125L20.997 20.997L27.9125 20.997C28.464 20.997 28.9095 20.5515 28.9095 20C28.9095 19.4484 28.464 19.003 27.9125 19.003L20.997 19.003L20.997 12.0875C20.997 11.5359 20.5515 11.0904 20 11.0904C19.4484 11.0904 19.0029 11.5359 19.0029 12.0875L19.0029 19.003L12.0874 19.003C11.55 19.003 11.0975 19.4555 11.0975 19.9929Z" fill="#272572"/>
</svg>
