<svg width="35" height="35" viewBox="0 0 35 35" fill="none" xmlns="http://www.w3.org/2000/svg">
<path fill-rule="evenodd" clip-rule="evenodd" d="M21.5958 12.9421L28.6541 13.5546C29.9374 13.6567 30.4479 15.2609 29.4708 16.1067L24.1187 20.7442L25.7229 27.6421C26.0145 28.8963 24.6583 29.8879 23.5499 29.2171L17.4979 25.5567L11.4458 29.2025C10.3374 29.8734 8.9812 28.8817 9.27286 27.6275L10.877 20.7442L5.52495 16.1067C4.54786 15.2609 5.07286 13.6567 6.3562 13.5546L13.3999 12.9567L16.1562 6.45253C16.652 5.27128 18.3437 5.27128 18.8395 6.45253L21.5958 12.9421ZM12.0145 26.14L17.4979 22.8296L22.9958 26.1546L21.5374 19.9129L26.3791 15.7129L19.9916 15.1588L17.4979 9.2671L15.0187 15.1442L8.6312 15.6983L13.4729 19.8983L12.0145 26.14Z" fill="#D79F10"/>
</svg>
